# xmcd
#
# Track frame offsets:
#	150
#	11505
#	24063
#	35243
#	49296
#	59289
#	72155
#	85093
#	96611
#	107789
#	119154
#	130400
#	142934
#	161467
#	177198
#	189535
#	202383
#	213227
#	226876
#	239745
#	250713
#	269350
#	280187
#
# Disc length: 3854 seconds
#
# Revision: 0
# Processed by: cddbd v1.5.2PL0 Copyright (c) Steve Scherf et al.
# Submitted via: EZCDAudioConverter 1.2.5.1
#
DISCID=580f0c17
DTITLE=Bo Diddley - Bo Diddley - Have guitar will travel
DYEAR=2013
DGENRE=Soul
TTITLE0=Bo Diddley
TTITLE1=I'm a man
TTITLE2=Bring it to Jerome
TTITLE3=Before you accuse me
TTITLE4=Hey! Bo Diddley
TTITLE5=Dearest Darling
TTITLE6=Hush your mouth
TTITLE7=Say boss man
TTITLE8=Diddley Daddy
TTITLE9=Diddy wah Diddy
TTITLE10=Who do you love?
TTITLE11=Pretty thing
TTITLE12=She's alright
TTITLE13=Cops and robbers
TTITLE14=Run Diddley Daddy
TTITLE15=Mumblin' guitar
TTITLE16=I need you baby
TTITLE17=Say man, back again
TTITLE18=Nursery rhyme
TTITLE19=I love you so
TTITLE20=Spanish guitar
TTITLE21=Dancing girl
TTITLE22=Come on baby
EXTD=
EXTT0=
EXTT1=
EXTT2=
EXTT3=
EXTT4=
EXTT5=
EXTT6=
EXTT7=
EXTT8=
EXTT9=
EXTT10=
EXTT11=
EXTT12=
EXTT13=
EXTT14=
EXTT15=
EXTT16=
EXTT17=
EXTT18=
EXTT19=
EXTT20=
EXTT21=
EXTT22=
PLAYORDER=
